<svg width="25" height="27" viewBox="0 0 25 27" fill="none" xmlns="http://www.w3.org/2000/svg">
<path d="M2.92969 16.8507L1.06509 16.3958C0.518604 17.6153 0 18.9852 0 20.5634C0 22.1114 0.497607 23.4647 1.06509 24.731L7.37305 23.1919V26.2272L9.57031 25.012L11.7676 26.2272V23.1935L18.0263 24.7318C18.5686 23.5218 19.0918 22.1483 19.0918 20.5634C19.0918 20.2902 19.0735 20.0183 19.0428 19.7533H25V0.310486H2.92969V16.8507ZM1.90088 22.8678C1.71035 22.3106 1.46484 21.4253 1.46484 20.5634C1.46484 19.7013 1.7104 18.8159 1.90088 18.2589L7.37305 19.594V21.5327L1.90088 22.8678ZM10.3027 23.6056L9.57031 23.2005L8.83789 23.6056V19.7532H10.3027V23.6056ZM17.1913 22.8668L11.7676 21.5337V19.593L17.1913 18.2598C17.3817 18.8172 17.627 19.7019 17.627 20.5633C17.627 21.4249 17.3817 22.3098 17.1913 22.8668ZM23.5352 1.93072V18.133H18.7038C18.4637 17.3206 18.2701 16.937 18.0263 16.3949L10.9548 18.133H8.18535L4.39453 17.2081V1.93072H23.5352Z" fill="#FFA501"/>
<path d="M8.83789 3.55084H19.0918V5.17107H8.83789V3.55084Z" fill="#FFA501"/>
<path d="M5.85938 10.0318H22.0703V11.652H5.85938V10.0318Z" fill="#FFA501"/>
<path d="M8.83789 13.2722H19.0918V14.8924H8.83789V13.2722Z" fill="#FFA501"/>
<path d="M10.3027 6.79138H11.7676V8.41161H10.3027V6.79138Z" fill="#FFA501"/>
<path d="M13.2324 6.79138H14.6973V8.41161H13.2324V6.79138Z" fill="#FFA501"/>
<path d="M16.1621 6.79138H17.627V8.41161H16.1621V6.79138Z" fill="#FFA501"/>
</svg>
