<svg width="25" height="29" viewBox="0 0 25 29" fill="none" xmlns="http://www.w3.org/2000/svg">
<g clip-path="url(#clip0_11_59)">
<path d="M22.5 4.78876H11.25V5.71049H22.5V4.78876Z" fill="#FFA501"/>
<path d="M18.3333 6.63214H11.25V7.55387H18.3333V6.63214Z" fill="#FFA501"/>
<path d="M18.3333 8.47565H11.25V9.39738H18.3333V8.47565Z" fill="#FFA501"/>
<path d="M22.5 2.94525H14.5833V3.86698H22.5V2.94525Z" fill="#FFA501"/>
<path d="M13.75 2.94525H12.9167V3.86698H13.75V2.94525Z" fill="#FFA501"/>
<path d="M12.9166 19.0756H12.0833V19.9973H12.9166V19.0756Z" fill="#FFA501"/>
<path d="M6.96124 3.73199L6.37207 3.08032L5.53874 4.00205C5.37608 4.18202 5.37608 4.47375 5.53874 4.65372L6.37207 5.57545L6.96124 4.92378L6.42249 4.32789L6.96124 3.73199Z" fill="#FFA501"/>
<path d="M10.2946 4.00205L9.46124 3.08032L8.87207 3.73199L9.41082 4.32789L8.87207 4.92378L9.46124 5.57545L10.2946 4.65372C10.4572 4.47375 10.4572 4.18202 10.2946 4.00205Z" fill="#FFA501"/>
<path d="M7.93836 2.79894L7.10425 5.56409L7.89435 5.85567L8.72846 3.09052L7.93836 2.79894Z" fill="#FFA501"/>
<path d="M21.6667 14.9278V11.2408H20.8334V14.9278H20V10.3191H19.1667V14.9278H18.3334V12.6234H17.5V14.9278H16.6667V12.1626H15.8334V14.9278H15V13.0843H14.1667V14.9278H13.3334V15.8495H22.5V14.9278H21.6667Z" fill="#FFA501"/>
<path d="M22.0834 0.64093H2.91669C1.53653 0.642428 0.418041 1.87956 0.416687 3.40612V12.4511V12.4552V17.693V19.0756C0.418041 20.6021 1.53653 21.8393 2.91669 21.8407H8.07585L6.40919 25.5277H4.16669C3.47632 25.5277 2.91669 26.1467 2.91669 26.9103C2.91669 27.6739 3.47632 28.2929 4.16669 28.2929H20.8334C21.5237 28.2929 22.0834 27.6739 22.0834 26.9103C22.0834 26.1467 21.5237 25.5277 20.8334 25.5277H18.5909L16.9242 21.8407H22.0834C23.4635 21.8393 24.582 20.6021 24.5834 19.0756V3.40612C24.582 1.87956 23.4635 0.642428 22.0834 0.64093ZM1.25002 7.12531L2.1971 8.37241C2.27627 8.47674 2.39315 8.53694 2.51627 8.53694H3.79169C3.91481 8.53694 4.03169 8.47674 4.11085 8.37241L5.05835 7.12531L5.99335 7.46128L6.09669 9.08491C6.10523 9.22069 6.16762 9.34536 6.2671 9.42549L7.29919 10.255C7.39903 10.3348 7.52549 10.3619 7.64502 10.3292L9.07544 9.93613L9.65377 10.8159L8.87419 12.1985C8.8096 12.3144 8.79466 12.456 8.83335 12.5852L9.22794 13.9268C9.26591 14.0562 9.35356 14.1604 9.46752 14.2116L10.8334 14.8241V15.9117L9.46669 16.5242C9.35247 16.5751 9.26466 16.6797 9.2271 16.8095L9.1021 17.2321H6.70169C7.63544 15.0697 6.80752 12.4795 4.85252 11.4467C3.70424 10.8401 2.36122 10.8872 1.25002 11.5731V7.12531ZM1.25002 12.6695C2.59773 11.5066 4.54262 11.7723 5.59398 13.263C6.40575 14.4139 6.46841 16.0076 5.75002 17.2321H1.25002V12.6695ZM20.8334 26.4494C21.0635 26.4494 21.25 26.6558 21.25 26.9103C21.25 27.1648 21.0635 27.3711 20.8334 27.3711H4.16669C3.93658 27.3711 3.75002 27.1648 3.75002 26.9103C3.75002 26.6558 3.93658 26.4494 4.16669 26.4494H20.8334ZM17.6592 25.5277H7.34085L9.00752 21.8407H15.9925L17.6592 25.5277ZM23.75 19.0756C23.75 20.0937 23.0038 20.919 22.0834 20.919H2.91669C1.99622 20.919 1.25002 20.0937 1.25002 19.0756V18.1538H5.96752H5.97127H23.75V19.0756ZM23.75 17.2321H10.1063L11.4067 16.6491C11.5638 16.5786 11.6666 16.4099 11.6667 16.2223V14.513C11.6667 14.3253 11.5639 14.1563 11.4067 14.0858L9.95835 13.4378L9.68419 12.5045L10.51 11.039C10.5996 10.8798 10.593 10.6764 10.4934 10.5247L9.58502 9.14206C9.48528 8.99014 9.31226 8.92032 9.14752 8.96555L7.63252 9.38033L6.91669 8.80517L6.8071 7.08614C6.79518 6.89874 6.68158 6.73807 6.52002 6.68011L5.05127 6.15196C4.88966 6.09504 4.71299 6.15121 4.60335 6.29437L3.60044 7.61475H2.71169L1.70835 6.29437C1.59867 6.15104 1.42174 6.09481 1.26002 6.15196L1.25002 6.15611V3.40612C1.25002 2.38801 1.99622 1.56266 2.91669 1.56266H22.0834C23.0038 1.56266 23.75 2.38801 23.75 3.40612V17.2321Z" fill="#FFA501"/>
</g>
<defs>
<clipPath id="clip0_11_59">
<rect width="25" height="27.6519" fill="white" transform="translate(0 0.64093)"/>
</clipPath>
</defs>
</svg>
