<svg width="96" height="86" fill="none" xmlns="http://www.w3.org/2000/svg"><path d="M57.733 7.333c-4.533 2-7.733 6-9.066 11.6-.8 3.2-.534 3.734 1.866 3.734 3.867 0 10.667-6.534 12-11.6 1.6-5.334.667-6-4.8-3.734zm-.4 16.934c-5.466 1.6-10 1.733-19.6.4-5.733-.8-7.6-.534-11.466 1.866C12.8 34.8 14.933 62.667 30.133 75.867c3.867 3.466 5.6 4.133 8.4 3.466 7.334-1.866 14.8-2.133 19.2-.8 6.134 2 10.267.134 15.334-7.066C79.2 62.8 79.2 61.6 74 55.867c-3.867-4.267-4.667-6.267-4.667-11.2 0-4.667.8-6.8 4.134-10.534l4.133-4.666-4.533-2.8C70.667 25.2 68 24 67.067 24c-.8 0-2.267-.267-3.334-.533-.933-.267-3.866.133-6.4.8z" fill="#FFA501"/></svg>