<svg width="96" height="86" viewBox="0 0 96 86" fill="none" xmlns="http://www.w3.org/2000/svg">
<path d="M57.7333 7.33341C53.2 9.33341 50 13.3334 48.6667 18.9334C47.8667 22.1334 48.1333 22.6667 50.5333 22.6667C54.4 22.6667 61.2 16.1334 62.5333 11.0667C64.1333 5.73341 63.2 5.06675 57.7333 7.33341Z" fill="#FFA501"/>
<path d="M57.3333 24.2667C51.8667 25.8667 47.3333 26.0001 37.7333 24.6667C32 23.8667 30.1333 24.1334 26.2667 26.5334C12.8 34.8001 14.9333 62.6667 30.1333 75.8667C34 79.3334 35.7333 80.0001 38.5333 79.3334C45.8667 77.4667 53.3333 77.2001 57.7333 78.5334C63.8667 80.5334 68 78.6667 73.0667 71.4667C79.2 62.8001 79.2 61.6001 74 55.8667C70.1333 51.6001 69.3333 49.6001 69.3333 44.6667C69.3333 40.0001 70.1333 37.8667 73.4667 34.1334L77.6 29.4667L73.0667 26.6667C70.6667 25.2001 68 24.0001 67.0667 24.0001C66.2667 24.0001 64.8 23.7334 63.7333 23.4667C62.8 23.2001 59.8667 23.6001 57.3333 24.2667Z" fill="#FFA501"/>
</svg>
