<svg width="25" height="28" viewBox="0 0 25 28" fill="none" xmlns="http://www.w3.org/2000/svg">
<path d="M20.2645 21.3811L19.6145 21.8607L21.1449 24.3999H3.85469L5.67773 21.3755H15.6023V20.5114H5.46875C5.40446 20.5113 5.34115 20.5289 5.28446 20.5624C5.22777 20.596 5.17943 20.6445 5.14375 20.7036L2.8 24.5922C2.75732 24.6632 2.7345 24.7466 2.73438 24.832V26.1282C2.73438 26.3573 2.81668 26.5771 2.9632 26.7392C3.10971 26.9012 3.30842 26.9923 3.51562 26.9923H21.4844C21.6916 26.9923 21.8903 26.9012 22.0368 26.7392C22.1833 26.5771 22.2656 26.3573 22.2656 26.1282V24.832C22.2655 24.7466 22.2427 24.6632 22.2 24.5922L20.2645 21.3811ZM3.51562 26.1282V25.264H21.4844V26.1282H3.51562Z" fill="#FFA501"/>
<path d="M20.3125 1.0686H4.6875C4.37698 1.06963 4.07945 1.20652 3.85988 1.44938C3.64032 1.69224 3.51655 2.02133 3.51562 2.36479V13.5984C3.51655 13.9418 3.64032 14.2709 3.85988 14.5138C4.07945 14.7567 4.37698 14.8935 4.6875 14.8946H10.1562V16.6228H8.59375C8.49015 16.6228 8.39079 16.6683 8.31754 16.7494C8.24428 16.8304 8.20312 16.9403 8.20312 17.0549V18.7831C8.20312 18.8977 8.24428 19.0076 8.31754 19.0886C8.39079 19.1697 8.49015 19.2152 8.59375 19.2152H16.4062C16.5099 19.2152 16.6092 19.1697 16.6825 19.0886C16.7557 19.0076 16.7969 18.8977 16.7969 18.7831V17.0549C16.7969 16.9403 16.7557 16.8304 16.6825 16.7494C16.6092 16.6683 16.5099 16.6228 16.4062 16.6228H14.8438V14.8946H20.3125C20.623 14.8935 20.9205 14.7567 21.1401 14.5138C21.3597 14.2709 21.4834 13.9418 21.4844 13.5984V2.36479C21.4834 2.02133 21.3597 1.69224 21.1401 1.44938C20.9205 1.20652 20.623 1.06963 20.3125 1.0686ZM16.0156 17.4869V18.3511H8.98438V17.4869H16.0156ZM10.9375 16.6228V14.8946H14.0625V16.6228H10.9375ZM20.7031 13.5984C20.7031 13.713 20.662 13.8229 20.5887 13.9039C20.5155 13.9849 20.4161 14.0304 20.3125 14.0304H4.6875C4.5839 14.0304 4.48454 13.9849 4.41129 13.9039C4.33803 13.8229 4.29688 13.713 4.29688 13.5984V12.3022H20.7031V13.5984ZM20.7031 11.4381H4.29688V2.36479C4.29688 2.2502 4.33803 2.1403 4.41129 2.05927C4.48454 1.97825 4.5839 1.93273 4.6875 1.93273H20.3125C20.4161 1.93273 20.5155 1.97825 20.5887 2.05927C20.662 2.1403 20.7031 2.2502 20.7031 2.36479V11.4381Z" fill="#FFA501"/>
<path d="M18.3594 12.7343H19.1406V13.5984H18.3594V12.7343Z" fill="#FFA501"/>
<path d="M8.98438 10.574H10.5469C10.6505 10.574 10.7498 10.5285 10.8231 10.4474C10.8963 10.3664 10.9375 10.2565 10.9375 10.1419V9.70986H14.0625V10.1419C14.0625 10.2565 14.1037 10.3664 14.1769 10.4474C14.2502 10.5285 14.3495 10.574 14.4531 10.574H16.0156C16.1192 10.574 16.2186 10.5285 16.2918 10.4474C16.3651 10.3664 16.4062 10.2565 16.4062 10.1419V8.41368C16.4062 8.29909 16.3651 8.18919 16.2918 8.10816C16.2186 8.02713 16.1192 7.98161 16.0156 7.98161H15.625V5.38924H16.0156C16.1192 5.38924 16.2186 5.34372 16.2918 5.2627C16.3651 5.18167 16.4062 5.07177 16.4062 4.95718V3.22894C16.4062 3.11435 16.3651 3.00445 16.2918 2.92342C16.2186 2.8424 16.1192 2.79688 16.0156 2.79688H14.4531C14.3495 2.79688 14.2502 2.8424 14.1769 2.92342C14.1037 3.00445 14.0625 3.11435 14.0625 3.22894V3.661H10.9375V3.22894C10.9375 3.11435 10.8963 3.00445 10.8231 2.92342C10.7498 2.8424 10.6505 2.79688 10.5469 2.79688H8.98438C8.88077 2.79688 8.78142 2.8424 8.70816 2.92342C8.6349 3.00445 8.59375 3.11435 8.59375 3.22894V4.95718C8.59375 5.07177 8.6349 5.18167 8.70816 5.2627C8.78142 5.34372 8.88077 5.38924 8.98438 5.38924H9.375V7.98161H8.98438C8.88077 7.98161 8.78142 8.02713 8.70816 8.10816C8.6349 8.18919 8.59375 8.29909 8.59375 8.41368V10.1419C8.59375 10.2565 8.6349 10.3664 8.70816 10.4474C8.78142 10.5285 8.88077 10.574 8.98438 10.574ZM15.625 9.70986H14.8438V8.84574H15.625V9.70986ZM14.8438 3.661H15.625V4.52512H14.8438V3.661ZM9.375 3.661H10.1562V4.52512H9.375V3.661ZM10.1562 5.38924H10.5469C10.6505 5.38924 10.7498 5.34372 10.8231 5.2627C10.8963 5.18167 10.9375 5.07177 10.9375 4.95718V4.52512H14.0625V4.95718C14.0625 5.07177 14.1037 5.18167 14.1769 5.2627C14.2502 5.34372 14.3495 5.38924 14.4531 5.38924H14.8438V7.98161H14.4531C14.3495 7.98161 14.2502 8.02713 14.1769 8.10816C14.1037 8.18919 14.0625 8.29909 14.0625 8.41368V8.84574H10.9375V8.41368C10.9375 8.29909 10.8963 8.18919 10.8231 8.10816C10.7498 8.02713 10.6505 7.98161 10.5469 7.98161H10.1562V5.38924ZM9.375 8.84574H10.1562V9.70986H9.375V8.84574Z" fill="#FFA501"/>
<path d="M8.98438 22.6717H14.4531V23.5358H8.98438V22.6717Z" fill="#FFA501"/>
<path d="M23.3867 16.1217L22.2813 14.8989C22.2449 14.8587 22.2016 14.8269 22.154 14.8054C22.1064 14.7839 22.0553 14.7731 22.0039 14.7736C21.9531 14.7731 21.9026 14.7839 21.8556 14.8054C21.8086 14.827 21.7661 14.8588 21.7305 14.8989L16.4805 20.7058C16.4377 20.7531 16.4055 20.8108 16.3867 20.8744L16.1094 21.7903C16.0871 21.8662 16.084 21.9475 16.1005 22.0252C16.1171 22.1029 16.1526 22.1741 16.2031 22.231L15.6523 22.8446L16.2031 23.4538L16.7578 22.8446C16.7936 22.8844 16.8363 22.916 16.8832 22.9375C16.9301 22.959 16.9804 22.97 17.0312 22.9698C17.0736 22.9693 17.1157 22.9621 17.1562 22.9482L17.9844 22.6415C18.0418 22.6207 18.094 22.5851 18.1367 22.5378L23.3867 16.7309C23.4595 16.6499 23.5003 16.5404 23.5003 16.4263C23.5003 16.3121 23.4595 16.2026 23.3867 16.1217ZM17.6523 21.8551L17.1406 22.0409L16.9258 21.8076L17.0977 21.2416L20.8984 17.0376L21.4531 17.6468L17.6523 21.8551ZM22.0039 17.0376L21.4531 16.4284L22.0039 15.8149L22.5586 16.4284L22.0039 17.0376Z" fill="#FFA501"/>
</svg>
