<svg width="21" height="29" viewBox="0 0 21 29" fill="none" xmlns="http://www.w3.org/2000/svg">
<path d="M17.7169 18.7065L16.2497 18.23L13.0575 15.9238V15.3954C13.9817 14.6243 14.6164 13.4457 14.7343 12.0947C15.1978 12.0122 15.553 11.5666 15.553 11.0311V9.57803C15.553 9.57241 15.5524 9.5669 15.5522 9.56129V7.7206C15.7369 7.57434 15.854 7.33611 15.854 7.06888V5.38439L18.057 4.96934C18.4191 4.90112 18.6794 4.58307 18.705 4.17785C18.7305 3.77263 18.5126 3.4177 18.1626 3.29461L10.736 0.681828C10.5811 0.62728 10.4174 0.627334 10.2625 0.681773L2.83579 3.29461C2.48583 3.4177 2.26787 3.77263 2.2934 4.1778C2.30961 4.43525 2.42084 4.65723 2.59252 4.80261V7.00543H2.57436C2.15615 7.00543 1.81591 7.38175 1.81591 7.84433V8.93777L1.32631 12.1162C1.24169 12.666 1.62451 13.1692 2.12988 13.1692H3.78754C4.29179 13.1692 4.67592 12.6672 4.59111 12.1162L4.10151 8.93777V7.84433C4.10151 7.38175 3.76127 7.00543 3.34306 7.00543H3.32495V5.04154L5.14594 5.3846V7.06888C5.14594 7.33498 5.26259 7.57283 5.44638 7.7193L5.44707 9.57819V11.0311C5.44707 11.5667 5.80219 12.0122 6.26572 12.0947C6.38364 13.4449 7.01762 14.623 7.94096 15.3941V15.925L4.74946 18.2308L3.28339 18.7067C1.71459 19.216 0.606879 20.8091 0.606879 22.6609V23.8681C0.606879 24.0918 0.770795 24.2731 0.97309 24.2731C1.17538 24.2731 1.3393 24.0918 1.3393 23.8681V22.6609C1.3393 21.2014 2.22353 19.895 3.48969 19.484L4.85571 19.0405L10.313 22.6273C10.4238 22.7001 10.5704 22.704 10.6872 22.6273L16.1448 19.0403L17.5107 19.4838C18.7767 19.8949 19.6609 21.2012 19.6609 22.6606V26.5728C19.6609 27.0746 19.2918 27.4829 18.8381 27.4829H17.224V25.7369C17.224 25.5132 17.0601 25.3319 16.8578 25.3319C16.6556 25.3319 16.4916 25.5132 16.4916 25.7369V27.4829H4.50683V25.7369C4.50683 25.5132 4.34291 25.3319 4.14062 25.3319C3.93832 25.3319 3.77441 25.5132 3.77441 25.7369V27.4829H2.16196C1.70829 27.4829 1.3392 27.0746 1.3392 26.5728V25.7615C1.3392 25.5378 1.17529 25.3565 0.972992 25.3565C0.770697 25.3565 0.606781 25.5378 0.606781 25.7615V26.5728C0.606781 27.5213 1.30439 28.2929 2.16191 28.2929H18.838C19.6956 28.2929 20.3932 27.5213 20.3932 26.5728V22.6606C20.3932 20.8524 19.3232 19.2281 17.7169 18.7065ZM3.78749 12.359H2.12988C2.07866 12.359 2.03959 12.3084 2.04828 12.2522L2.49116 9.37707H3.42621L3.86909 12.2522C3.87773 12.3083 3.83896 12.359 3.78749 12.359ZM3.36909 7.84433V8.567H2.54824V7.84433C2.54824 7.82839 2.55991 7.81549 2.57431 7.81549H3.34296C3.35742 7.81543 3.36909 7.82839 3.36909 7.84433ZM9.19028 20.795L9.33603 21.0428L5.59731 18.5856L7.97041 16.8712C8.07802 18.2678 8.49423 19.6118 9.19028 20.795ZM9.18774 19.0465C10.0497 19.182 10.9498 19.1821 11.8123 19.0465C11.6456 19.5001 11.4402 19.9378 11.1958 20.3533L10.5 21.5363L9.80415 20.3533C9.55976 19.9378 9.35439 19.5001 9.18774 19.0465ZM11.8097 20.795C12.5058 19.6118 12.922 18.2678 13.0295 16.8712L15.4026 18.5856L11.664 21.0428L11.8097 20.795ZM13.9519 7.87144H14.8198V9.17292H14.389C14.1479 9.17292 13.9518 8.95602 13.9518 8.68939V7.87144H13.9519ZM3.05776 4.0666L10.4846 1.45371C10.4941 1.45036 10.5043 1.4503 10.514 1.45376L17.9408 4.0666C17.9561 4.072 17.9771 4.07934 17.9745 4.12152C17.9718 4.16365 17.95 4.1677 17.9341 4.17072L15.4787 4.6333L14.5568 4.50719C14.3562 4.4797 14.1733 4.63751 14.1484 4.85948C14.1236 5.08151 14.2663 5.28371 14.4669 5.31115L15.1217 5.40075V7.06138L5.87832 7.061V5.4007L9.66772 4.88206C10.2197 4.80661 10.7792 4.80661 11.3308 4.88206L12.765 5.07827C12.9657 5.10576 13.1486 4.948 13.1734 4.72603C13.1983 4.50401 13.0557 4.3018 12.855 4.27431L11.4207 4.0781C10.8096 3.99444 10.1894 3.99444 9.57783 4.0781L5.5205 4.63341L3.0643 4.17072C3.04838 4.1677 3.02665 4.16365 3.02397 4.12152C3.02133 4.07934 3.04238 4.07194 3.05776 4.0666ZM6.17924 9.17292L6.17875 7.87144H7.04814V8.68944C7.04814 8.95602 6.85205 9.17297 6.61093 9.17297H6.17924V9.17292ZM6.98525 11.8865C6.9664 11.5567 6.71855 11.2983 6.42104 11.2983C6.28779 11.2983 6.17939 11.1784 6.17939 11.0311V9.98303H6.61093C7.25581 9.98303 7.78051 9.40272 7.78051 8.68944V7.87144H13.2194V8.68944C13.2194 9.40272 13.7441 9.98303 14.389 9.98303H14.8206V11.0311C14.8206 11.1784 14.7122 11.2983 14.5789 11.2983C14.2814 11.2983 14.0335 11.5567 14.0147 11.8865C13.898 13.9318 12.3542 15.5339 10.4999 15.5339C8.6457 15.5339 7.1019 13.9317 6.98525 11.8865ZM10.5 16.3439C11.1513 16.3439 11.7704 16.1792 12.3251 15.8863V16.143C12.3251 16.8356 12.2406 17.5187 12.078 18.1776C11.0828 18.3875 9.95761 18.396 8.92202 18.1776C8.75937 17.5188 8.6749 16.8356 8.6749 16.143C8.6749 16.1345 8.67382 16.1261 8.67334 16.1176C8.67324 16.1159 8.67338 16.1143 8.67329 16.1126V15.8855C9.22841 16.1789 9.84804 16.3439 10.5 16.3439Z" fill="#FFA501"/>
</svg>
